<svg xmlns="http://www.w3.org/2000/svg" width="40" height="40" fill="none"><path fill="#FFF" fill-rule="evenodd" d="M36.129 23.226a5.154 5.154 0 0 1-1.904 4c3.283.62 5.775 3.506 5.775 6.968V40H25.161v-7.42a.969.969 0 0 0-.967-.967h-.968v1.15l-1.802.444c-.08.214-.17.428-.268.641l.962 1.59-3.453 3.454-1.59-.963c-.214.1-.428.19-.642.268L15.99 40h-4.883l-.442-1.802c-.215-.08-.43-.169-.642-.268l-1.59.962-3.454-3.453.963-1.59a8.616 8.616 0 0 1-.268-.642l-1.803-.443V27.88l1.803-.443c.079-.214.169-.428.268-.642l-.963-1.59.69-.69H4.516a1.938 1.938 0 0 1-1.935-1.935v-1.29c0-1.068.868-1.936 1.935-1.936h1.29a.645.645 0 0 0 .646-.645v-.646H0V14.84c0-3.009 1.885-5.579 4.532-6.61a4.514 4.514 0 0 1-1.951-3.713A4.522 4.522 0 0 1 7.097 0a4.522 4.522 0 0 1 4.516 4.516A4.514 4.514 0 0 1 9.66 8.23a7.125 7.125 0 0 1 3.887 3.67 7.128 7.128 0 0 1 3.887-3.67 4.514 4.514 0 0 1-1.951-3.713A4.522 4.522 0 0 1 20 0a4.522 4.522 0 0 1 4.516 4.516 4.514 4.514 0 0 1-1.951 3.713c2.647 1.031 4.532 3.601 4.532 6.61v3.225h-6.452v.646c0 .356.29.645.645.645h1.29c1.068 0 1.936.868 1.936 1.935v1.29a1.938 1.938 0 0 1-1.935 1.936h-1.153l.69.69-.964 1.59c.047.1.081.2.124.3h6.287a5.145 5.145 0 0 1-1.759-3.87 5.167 5.167 0 0 1 5.162-5.162 5.167 5.167 0 0 1 5.161 5.162ZM3.871 4.516A3.23 3.23 0 0 1 7.097 1.29a3.23 3.23 0 0 1 3.226 3.226 3.23 3.23 0 0 1-3.226 3.226A3.23 3.23 0 0 1 3.87 4.516Zm12.903 0A3.23 3.23 0 0 1 20 1.29a3.23 3.23 0 0 1 3.226 3.226A3.23 3.23 0 0 1 20 7.742a3.23 3.23 0 0 1-3.226-3.226ZM40 12.258a4.522 4.522 0 0 0-4.516-4.516h-2.58a4.522 4.522 0 0 0-4.517 4.516v4.516h7.097A4.522 4.522 0 0 0 40 12.258Zm-38.71 2.58a5.813 5.813 0 0 1 5.807-5.806 5.813 5.813 0 0 1 5.806 5.807v1.935h-1.935v-5.161h-1.29v5.161H4.515v-5.161h-1.29v5.161H1.29V14.84ZM20 9.033a5.813 5.813 0 0 1 5.806 5.807v1.935h-1.935v-5.161h-1.29v5.161h-5.162v-5.161h-1.29v5.161h-1.935V14.84A5.813 5.813 0 0 1 20 9.032Zm9.677 3.226a3.23 3.23 0 0 1 3.226-3.226h2.58a3.23 3.23 0 0 1 3.227 3.226 3.23 3.23 0 0 1-3.226 3.226h-5.807v-3.226Zm7.742-1.935h-6.451v1.29h6.451v-1.29Zm-6.451 2.58h1.29v1.29h-1.29v-1.29Zm3.87 0h-1.29v1.29h1.29v-1.29Zm1.291 0h1.29v1.29h-1.29v-1.29ZM4.516 23.226a.645.645 0 0 1-.645-.645v-1.29c0-.357.289-.646.645-.646h1.29a1.938 1.938 0 0 0 1.936-1.935v-.646h11.613v.646c0 1.067.868 1.935 1.935 1.935h1.29c.357 0 .646.29.646.645v1.29a.645.645 0 0 1-.645.646h-2.444l-1.472-1.473-1.59.963a8.664 8.664 0 0 0-.642-.268l-.443-1.803h-4.883l-.443 1.803a8.68 8.68 0 0 0-.642.268l-1.59-.963-1.473 1.473H4.516Zm22.58 0a3.875 3.875 0 0 1 3.872-3.871 3.875 3.875 0 0 1 3.87 3.87 3.875 3.875 0 0 1-3.87 3.872 3.875 3.875 0 0 1-3.871-3.871Zm-5.16 8.526-1.513.372-.11.345a7.06 7.06 0 0 1-.467 1.114l-.167.322.81 1.338-2.021 2.02-1.338-.809-.322.167c-.37.192-.744.35-1.113.466l-.345.11-.372 1.513h-2.86l-.372-1.513-.344-.11a7.051 7.051 0 0 1-1.114-.466l-.322-.168-1.338.81-2.02-2.021.809-1.338-.167-.321a7.033 7.033 0 0 1-.466-1.113l-.11-.346-1.513-.372v-2.86l1.515-.371.109-.346c.116-.368.273-.743.465-1.113l.167-.321-.81-1.338L8.63 23.38l1.338.81.321-.167a7.03 7.03 0 0 1 1.113-.466l.346-.109.372-1.514h2.859l.372 1.515.346.109c.368.116.743.273 1.113.465l.321.168 1.338-.81 2.022 2.021-.81 1.338.167.322.017.034H18.36a5.819 5.819 0 0 0-4.813-2.58 5.813 5.813 0 0 0-5.806 5.806 5.813 5.813 0 0 0 5.806 5.806c2.73 0 5.07-1.905 5.662-4.516h2.725v.14Zm-7.142-4.404a3.241 3.241 0 0 0-1.246-.251 3.23 3.23 0 0 0-3.225 3.226 3.226 3.226 0 0 0 6.181 1.29h1.37a4.522 4.522 0 0 1-4.326 3.226 4.522 4.522 0 0 1-4.516-4.516 4.522 4.522 0 0 1 4.516-4.517c1.191 0 2.321.478 3.156 1.29h-.898c-.365 0-.707.097-1.012.252Zm.296 4.137a1.931 1.931 0 0 1-3.477-1.162c0-1.067.868-1.936 1.935-1.936.072 0 .141.02.212.028a2.228 2.228 0 0 0-.212.94c0 .993.649 1.829 1.542 2.13Zm23.62 7.225h-1.936v-7.097h-1.29v7.097h-9.032v-6.13a2.26 2.26 0 0 0-2.258-2.257h-8.388a.969.969 0 0 1 0-1.936h17.097a5.813 5.813 0 0 1 5.807 5.807v4.516Z" clip-rule="evenodd"/></svg>