<svg xmlns="http://www.w3.org/2000/svg" width="1390.551" height="1035" fill="none" viewBox="0 0 1390.55 1035"><defs><linearGradient id="b" x1="-456.362" x2="771.464" y1="323.138" y2="969.415" gradientUnits="userSpaceOnUse"><stop stop-color="#33D35E"/><stop offset="1" stop-color="#2AB6D9"/></linearGradient><filter id="a" width="1188.317" height="803" x="0" y="232" color-interpolation-filters="sRGB" filterUnits="userSpaceOnUse"><feFlood flood-opacity="0" result="BackgroundImageFix"/><feColorMatrix in="SourceAlpha" result="hardAlpha" values="0 0 0 0 0 0 0 0 0 0 0 0 0 0 0 0 0 0 127 0"/><feOffset dy="2"/><feGaussianBlur stdDeviation="25.667"/><feComposite in2="hardAlpha" k2="-1" k3="1" operator="out"/><feColorMatrix values="0 0 0 0 0 0 0 0 0 0 0 0 0 0 0 0 0 0 0.024 0"/><feBlend in2="BackgroundImageFix" result="effect_dropShadow_1"/><feBlend in="SourceGraphic" in2="effect_dropShadow_1" result="shape"/></filter></defs><g filter="url(#a)"><path fill="#2D314D" fill-rule="evenodd" d="M88.996 572.839 223.28 707.113a100.001 100.001 0 0 0 70.708 29.286h70.693c26.52 0 51.954 10.535 70.708 29.287l161.039 161.027A100.002 100.002 0 0 0 667.136 956h343.984c89.09 0 133.7-107.718 70.7-170.713l-54.66-54.657c-19.41-19.41-5.66-52.599 21.79-52.599s41.2-33.19 21.79-52.6l-195.338-195.32a100.002 100.002 0 0 0-70.708-29.287H570.252a99.998 99.998 0 0 1-70.708-29.287l-35.253-35.25A100.002 100.002 0 0 0 393.583 307H199.105c-66.258 0-99.438 80.109-52.585 126.959 25.626 25.624 7.478 69.44-28.762 69.44s-54.388 43.816-28.761 69.44Z"/></g><path d="M223.28 707.113a100.001 100.001 0 0 0 70.708 29.286h70.693c26.52 0 51.954 10.535 70.708 29.287l161.039 161.027A100.002 100.002 0 0 0 667.136 956h343.984c89.09 0 133.7-107.718 70.7-170.713l-54.66-54.657c-19.41-19.41-5.66-52.599 21.79-52.599s41.2-33.19 21.79-52.6l-195.338-195.32a100.002 100.002 0 0 0-70.708-29.287H570.252a99.998 99.998 0 0 1-70.708-29.287l-35.253-35.25A100.002 100.002 0 0 0 393.583 307H199.105c-66.258 0-99.438 80.109-52.585 126.959 25.626 25.624 7.478 69.44-28.762 69.44s-54.388 43.816-28.761 69.44L223.28 707.113Z"/><path fill="url(#b)" fill-rule="evenodd" d="M255.758 196.399c-36.24 0-54.388 43.816-28.762 69.44L361.28 400.113a100.001 100.001 0 0 0 70.708 29.286h70.693c26.52 0 51.954 10.535 70.708 29.287l161.039 161.027A100.002 100.002 0 0 0 805.136 649h388.854c72.53 0 108.86-87.698 57.57-138.985l-86.4-86.385c-19.41-19.41-5.66-52.599 21.79-52.599s41.2-33.19 21.79-52.6l-195.34-195.32a99.994 99.994 0 0 0-70.706-29.287H708.252a99.998 99.998 0 0 1-70.708-29.287l-35.253-35.25A100.002 100.002 0 0 0 531.583 0H296.432c-51.249 0-76.914 61.963-40.674 98.2l28.762 28.759c25.626 25.624 7.478 69.44-28.762 69.44Z"/><path d="M361.28 400.113a100.001 100.001 0 0 0 70.708 29.286h70.693c26.52 0 51.954 10.535 70.708 29.287l161.039 161.027A100.002 100.002 0 0 0 805.136 649h343.984c89.09 0 133.7-107.718 70.7-170.713l-54.66-54.657c-19.41-19.41-5.66-52.599 21.79-52.599s41.2-33.19 21.79-52.6L1013.4 123.11a99.997 99.997 0 0 0-70.706-29.286H708.252a99.998 99.998 0 0 1-70.708-29.287l-35.253-35.25A100.002 100.002 0 0 0 531.583 0H337.105c-66.258 0-99.438 80.11-52.586 126.959 25.627 25.624 7.479 69.44-28.761 69.44s-54.388 43.816-28.762 69.44L361.28 400.113Z"/></svg>