<svg xmlns="http://www.w3.org/2000/svg" width="39.979" height="39.979" fill="none"><path fill="#FFF" fill-rule="evenodd" d="M33.316 3.332v3.727l4.11 4.118a8.72 8.72 0 0 1 2.553 6.141v21.994a.666.666 0 0 1-.667.667H27.32a.666.666 0 0 1-.666-.667V32.84l-.383-.612a9.63 9.63 0 0 1-.83-8.553L9.799 29.701a3.332 3.332 0 0 1-4.307-1.912l-2.504-6.501A3.325 3.325 0 0 1 0 17.99V3.332A3.336 3.336 0 0 1 3.332 0h26.652a3.336 3.336 0 0 1 3.332 3.332Zm-31.983 0V17.99a2 2 0 0 0 1.999 2h19.973l-2.601-2.843a3.542 3.542 0 0 1-.909-2.372 3.555 3.555 0 0 1 6.039-2.544l6.104 6.105c.025-.114.04-.23.045-.346V7.582l-.006-.015h.006V3.332a2 2 0 0 0-1.999-2H3.332a2 2 0 0 0-2 2Zm7.995 4.264c0 .957-.775 1.732-1.732 1.732H4.398a1.732 1.732 0 0 1-1.733-1.732V4.398c0-.957.776-1.733 1.733-1.733h3.198c.957 0 1.732.776 1.732 1.733v3.198ZM19.99 3.332h1.333V5.33h-1.333V3.332Zm2.666 0h1.332V5.33h-1.332V3.332Zm2.665 0h1.332V5.33H25.32V3.332Zm2.665 0h1.333V5.33h-1.333V3.332ZM3.998 6.663v.933c0 .22.179.4.4.4h3.198a.4.4 0 0 0 .4-.4v-.933H6.663V5.331h1.333v-.933a.4.4 0 0 0-.4-.4H4.398a.4.4 0 0 0-.4.4v.933H5.33v1.332H3.998Zm23.69 25.32h10.958V17.318a7.38 7.38 0 0 0-2.162-5.198l-2.159-2.163 2.255 5.856a3.333 3.333 0 0 1-1.91 4.304l-.683.267 2.465 2.466-.942.942-10.618-10.615a2.222 2.222 0 0 0-3.209 3.073l5.46 5.957a.666.666 0 0 1 .088.78 8.303 8.303 0 0 0 .168 8.534l.29.462Zm7.65-15.69-2.022-5.25v6.947a3.334 3.334 0 0 1-.282 1.333l1.156-.446a2 2 0 0 0 1.148-2.584ZM3.332 11.327h2.665v1.333H3.332v-1.333Zm3.997 0h2.666v1.333H7.329v-1.333Zm3.998 0h2.666v1.333h-2.666v-1.333Zm3.998 0h2.665v1.333h-2.665v-1.333ZM3.332 15.325h2.665v1.333H3.332v-1.333Zm11.993 0h2.665v1.333h-2.665v-1.333ZM6.735 27.31a1.999 1.999 0 0 0 2.585 1.147l16.073-6.195-.866-.944H13.565v.004l-7.953 3.065 1.124 2.923Zm-1.604-4.164 4.738-1.824h-5.44l.702 1.824Zm22.854 10.17v5.33h10.661v-5.33H27.985Zm1.333 1.332h1.332v1.333h-1.332v-1.333Z" clip-rule="evenodd"/></svg>