<svg xmlns="http://www.w3.org/2000/svg" width="40" height="40" fill="none"><path fill="#FFF" fill-rule="evenodd" d="M39.414 19.414H29.98v-1.333h2.545a.586.586 0 1 0 0-1.172H29.98v-1.333h1.767c.659 0 1.278-.257 1.743-.722L37.343 11c.252.126.53.192.819.192.49 0 .953-.191 1.3-.538.347-.348.538-.81.538-1.3 0-.491-.19-.953-.538-1.3a1.826 1.826 0 0 0-1.3-.539c-.491 0-.953.191-1.3.539a1.826 1.826 0 0 0-.539 1.3c0 .288.067.567.192.818l-3.854 3.853a1.284 1.284 0 0 1-.914.379H29.98v-1.293a3.094 3.094 0 0 0-3.091-3.09h-1.293V4.832a1.841 1.841 0 0 0 1.253-1.742 1.84 1.84 0 0 0-1.839-1.839 1.84 1.84 0 0 0-1.838 1.839c0 .809.525 1.497 1.252 1.742v5.187h-1.333V7.475a.586.586 0 0 0-1.172 0v2.545h-1.333V.586a.586.586 0 0 0-1.172 0v9.434h-1.333V7.475a.586.586 0 0 0-1.172 0v2.545h-1.333V8.253c0-.658-.256-1.277-.722-1.743L11 2.655A1.84 1.84 0 0 0 10.654.54a1.84 1.84 0 0 0-2.6 0 1.84 1.84 0 0 0 0 2.6 1.833 1.833 0 0 0 2.117.345l3.854 3.855c.245.244.38.569.38.914v1.767H13.11c-.26 0-.52.033-.772.098a.586.586 0 1 0 .292 1.134c.156-.04.317-.06.48-.06H26.89c1.058 0 1.919.861 1.919 1.92v13.777c0 .163-.02.324-.06.48a.586.586 0 0 0 1.135.291c.064-.25.097-.51.097-.771v-1.293h5.187a1.841 1.841 0 0 0 1.742 1.252 1.84 1.84 0 0 0 1.839-1.838 1.84 1.84 0 0 0-1.839-1.838c-.809 0-1.497.525-1.742 1.252H29.98v-1.333h2.545a.586.586 0 0 0 0-1.172H29.98v-1.333h9.434a.586.586 0 1 0 0-1.172ZM9.825 2.31a.668.668 0 0 1-.943-.943.664.664 0 0 1 .943 0c.26.26.26.683 0 .943Zm14.519.78a.667.667 0 1 0 1.334 0 .667.667 0 0 0-1.334 0Zm13.818 5.597a.662.662 0 0 0-.667.667.663.663 0 0 0 .667.666.662.662 0 0 0 .666-.666.663.663 0 0 0-.666-.667ZM29.83 36.516a1.84 1.84 0 0 1 2.116.346 1.84 1.84 0 0 1 0 2.6c-.358.358-.829.537-1.3.537-.47 0-.941-.18-1.3-.538a1.84 1.84 0 0 1-.345-2.116l-3.855-3.855a2.448 2.448 0 0 1-.722-1.743V29.98h-1.333v2.545a.586.586 0 1 1-1.172 0V29.98h-1.333v9.434a.586.586 0 1 1-1.172 0V29.98h-1.333v2.545a.586.586 0 0 1-1.172 0V29.98h-1.333v5.187a1.841 1.841 0 0 1 1.252 1.742 1.84 1.84 0 0 1-1.838 1.838 1.84 1.84 0 0 1-1.838-1.838c0-.81.525-1.497 1.252-1.742V29.98h-1.293a3.094 3.094 0 0 1-3.09-3.091v-1.293H8.252c-.345 0-.67.134-.914.379l-3.854 3.853c.125.251.192.53.192.818 0 .491-.191.953-.538 1.3a1.827 1.827 0 0 1-1.3.539c-.492 0-.953-.191-1.3-.539a1.827 1.827 0 0 1-.539-1.3c0-.49.191-.952.538-1.3a1.827 1.827 0 0 1 1.3-.538c.29 0 .568.067.819.192l3.853-3.854a2.448 2.448 0 0 1 1.743-.722h1.767v-1.333H7.475a.586.586 0 0 1 0-1.172h2.545v-1.333H.586a.586.586 0 0 1 0-1.172h9.434v-1.333H7.475a.586.586 0 0 1 0-1.172h2.545v-1.333H4.833a1.841 1.841 0 0 1-1.742 1.252 1.84 1.84 0 0 1-1.839-1.838 1.84 1.84 0 0 1 1.839-1.839c.809 0 1.497.526 1.742 1.253h5.187V13.11c0-.261.033-.521.098-.772a.586.586 0 1 1 1.134.292 1.93 1.93 0 0 0-.06.48V26.89c0 1.058.861 1.919 1.92 1.919h13.777c.163 0 .324-.02.48-.06a.586.586 0 1 1 .292 1.134 3.102 3.102 0 0 1-.772.098h-1.293v1.767c0 .345.134.67.379.914l3.855 3.855Zm-5.78-20.741c1.256.345 2.172 1.406 2.172 2.66 0 .702-.3 1.372-.815 1.878.516.507.815 1.177.815 1.879 0 .955-.544 1.84-1.414 2.344-.087 1.288-1.262 2.313-2.694 2.313A2.796 2.796 0 0 1 20 25.915a2.795 2.795 0 0 1-2.113.934c-1.49 0-2.7-1.106-2.7-2.465v-.002c-.877-.577-1.41-1.507-1.41-2.503 0-.655.227-1.27.618-1.777a2.574 2.574 0 0 1-.617-1.668c0-1.253.916-2.314 2.171-2.66a2 2 0 0 1-.057-.47c0-1.187 1.053-2.152 2.347-2.152.7 0 1.33.283 1.761.731a2.438 2.438 0 0 1 1.761-.731c1.295 0 2.348.965 2.348 2.151a2 2 0 0 1-.058.472Zm.098 5.056c.565.298.902.807.902 1.361 0 .413-.192.807-.516 1.102a2.63 2.63 0 0 0-1.54-1.24.586.586 0 0 0-.352 1.117c.598.188 1 .675 1 1.213 0 .713-.686 1.293-1.529 1.293-.842 0-1.527-.58-1.527-1.293v-3.758c0-.713.685-1.293 1.527-1.293a.586.586 0 1 0 0-1.171c-.566 0-1.093.16-1.527.434v-.749a.586.586 0 0 0-1.172 0V21.1a2.79 2.79 0 0 0-.648-.3.586.586 0 1 0-.35 1.119c.596.187.998.675.998 1.212v1.253c0 .713-.686 1.293-1.528 1.293s-1.528-.58-1.528-1.293c0-.306.13-.603.365-.837a.586.586 0 0 0-.826-.83c-.14.139-.261.291-.362.454-.37-.35-.586-.81-.586-1.292 0-.868.682-1.631 1.657-1.855a.586.586 0 0 0-.262-1.142c-.393.09-.754.24-1.075.438a1.414 1.414 0 0 1-.32-.886c0-.881.836-1.599 1.866-1.605h.016a.583.583 0 0 0 .497-.894l-.013-.021-.008-.01a.54.54 0 0 0-.029-.038v-.001a.87.87 0 0 1-.215-.562c0-.54.527-.98 1.175-.98.649 0 1.176.44 1.176.98a.586.586 0 0 0 1.172 0c0-.54.527-.98 1.175-.98s1.175.44 1.175.98a.824.824 0 0 1-.087.369 3.253 3.253 0 0 0-.962.24.586.586 0 0 0 .455 1.08c.254-.106.526-.161.81-.163h.033c1.03.006 1.865.724 1.865 1.605 0 .554-.337 1.063-.902 1.36a.586.586 0 0 0 0 1.037ZM3.091 15.656a.667.667 0 1 1 .001-1.334.667.667 0 0 1-.001 1.334Zm33.818 8.687a.667.667 0 1 1-.002 1.335.667.667 0 0 1 .002-1.335Zm-35.07 6.97a.662.662 0 0 0 .666-.667.663.663 0 0 0-.667-.666.662.662 0 0 0-.666.666.662.662 0 0 0 .666.667Zm13.817 5.596a.667.667 0 1 1-1.334-.002.667.667 0 0 1 1.335.002Zm14.519 1.724a.667.667 0 1 0 .943-.945.667.667 0 0 0-.943.945Z" clip-rule="evenodd"/></svg>