<svg xmlns="http://www.w3.org/2000/svg" width="33.111" height="40" fill="none"><path fill="#FFF" fill-rule="evenodd" d="M23.718 10.662v-7.57A3.096 3.096 0 0 0 20.626 0H3.092A3.096 3.096 0 0 0 0 3.092v23.796a.587.587 0 1 0 1.174 0V6.184h21.37v4.478c-.898.05-1.764.21-2.583.468V8.728a.587.587 0 0 0-.587-.587H4.344a.587.587 0 0 0-.587.587v12.838c0 .154.063.306.172.415l4.697 4.696c.109.11.261.172.415.172h6.705l-1.308 3.596c-.18.496.367.97.833.716l4.383-2.39c.93.323 1.898.513 2.89.567v3.852H1.174v-3.523a.587.587 0 1 0-1.174 0v7.241A3.095 3.095 0 0 0 3.092 40h17.534a3.095 3.095 0 0 0 3.092-3.092v-7.57c5.231-.286 9.393-4.365 9.393-9.338 0-4.973-4.162-9.052-9.393-9.338ZM1.174 5.01V3.092a1.92 1.92 0 0 1 1.918-1.918h17.534a1.92 1.92 0 0 1 1.918 1.918V5.01H1.174Zm9.433-2.505h2.505a.587.587 0 1 1 0 1.174h-2.505a.587.587 0 1 1 0-1.174Zm-.979 23.17v-4.11a.587.587 0 0 0-.587-.587h-4.11V9.315h13.856v2.265a10.14 10.14 0 0 0-1.705.985.584.584 0 0 0-.213-.04h-3.131a.587.587 0 1 0 0 1.174h2.024a9.427 9.427 0 0 0-1.467 1.957h-6.82a.587.587 0 1 0 0 1.174h6.267A8.786 8.786 0 0 0 13.15 20c0 2.083.718 4.054 2.045 5.675H9.628Zm10.186 1.904a9.343 9.343 0 0 0 3.317.601c4.856 0 8.806-3.67 8.806-8.18s-3.95-8.18-8.806-8.18c-4.855 0-8.806 3.67-8.806 8.18 0 2.217.94 4.293 2.648 5.846.176.16.238.41.157.635l-1.057 2.905 3.252-1.773a.587.587 0 0 1 .489-.034Zm-8.581-15.055H7.476a.587.587 0 1 0 0 1.175h3.757a.587.587 0 1 0 0-1.175Zm14.99 5.597a.587.587 0 1 1-1.174 0v-.626c0-.712-.58-1.292-1.292-1.292h-.939c-.885 0-1.605.72-1.605 1.605s.72 1.605 1.605 1.605h.626a2.782 2.782 0 0 1 2.78 2.779c0 1.44-1.102 2.627-2.506 2.765v1.305a.587.587 0 0 1-1.174 0v-1.291h-.04a2.469 2.469 0 0 1-2.465-2.466.587.587 0 1 1 1.174 0c0 .712.58 1.291 1.292 1.291h.94c.884 0 1.604-.72 1.604-1.604 0-.885-.72-1.605-1.605-1.605h-.626a2.782 2.782 0 0 1-2.779-2.779c0-1.44 1.1-2.627 2.505-2.765v-1.305a.587.587 0 1 1 1.174 0v1.291h.04a2.469 2.469 0 0 1 2.465 2.466v.626Zm-18.747.666h4.383a.587.587 0 1 1 0 1.174H7.476a.587.587 0 1 1 0-1.174Zm-1.714 3.366 2.692 2.692v-2.692H5.762Zm14.864 16.673a1.92 1.92 0 0 0 1.918-1.918v-2.544H1.174v2.544a1.92 1.92 0 0 0 1.918 1.918h17.534Zm-10.02-3.758h2.506c.324 0 .587.263.587.588v1.878a.587.587 0 0 1-.587.587h-2.505a.587.587 0 0 1-.587-.587v-1.878c0-.325.263-.587.587-.587Zm.588 1.88h1.33v-.705h-1.33v.704Z" clip-rule="evenodd"/></svg>